<svg viewBox="0 0 29 22"><path d="M1 5.34c0-.86.52-1.32 1.55-1.38l3.97.02c.27 0 .44.13.53.38.41 1.26.87 2.34 1.38 3.25.5.92 1.16 1.97 1.98 3.16.07.15.19.23.35.23.12 0 .22-.06.29-.18l.08-.28.03-4.35c0-.3-.08-.5-.23-.6-.15-.1-.43-.18-.84-.23-.32-.05-.48-.23-.48-.55 0-.07.01-.12.03-.15.37-1.09 1.44-1.63 3.2-1.63L14.32 3c.67 0 1.23.16 1.67.48.45.32.67.82.67 1.5v5.72c.13.08.24.12.35.12.26 0 .5-.15.69-.45 1.95-2.58 3.01-4.31 3.17-5.18l.05-.13c.13-.25.33-.47.62-.65.28-.19.53-.31.74-.38a.56.56 0 0 1 .24-.05h4.13l.27.03c.35 0 .63.16.82.47.08.1.12.21.15.33a2.4 2.4 0 0 1 .07.55v.18a6.1 6.1 0 0 1-.95 2.2c-.5.78-1.15 1.62-1.93 2.53-.78.9-1.27 1.5-1.46 1.78-.16.2-.24.39-.24.56 0 .13.07.28.2.45l3.9 4.63c.21.26.32.56.32.88 0 .38-.16.7-.48.95-.32.25-.7.4-1.15.43l-.45.02h-4.05l-.1.02a.86.86 0 0 1-.11.01c-.4 0-.76-.16-1.1-.48l-2.5-2.97a1.39 1.39 0 0 0-.37-.32 38.47 38.47 0 0 0-.54 2.24l-.08.42a1.4 1.4 0 0 1-1.11 1.06l-.38.02h-2.6c-1.48 0-2.95-.63-4.42-1.9a19.3 19.3 0 0 1-3.95-4.95 47.52 47.52 0 0 1-3.28-7.05A1.92 1.92 0 0 1 1 5.34Zm16.02 6.51c-.38 0-.71-.1-1.02-.29a.9.9 0 0 1-.45-.79V5c0-.34-.09-.58-.26-.72-.18-.14-.5-.21-.94-.21l-1.52.05c-.76 0-1.34.12-1.73.37.78.36 1.18.93 1.18 1.71v4.43a1.5 1.5 0 0 1-.54 1.04c-.32.28-.67.42-1.06.42-.54 0-.95-.24-1.23-.73a26.16 26.16 0 0 1-3.09-5.63l-.24-.66-3.54-.02c-.23 0-.36.01-.39.03-.03.03-.04.1-.04.22 0 .15.02.3.05.48l.56 1.4c1.5 3.64 3.12 6.51 4.87 8.6 1.75 2.1 3.46 3.15 5.15 3.15h2.67c.1 0 .18-.03.24-.09.05-.06.1-.17.13-.34l.05-.25.5-2.21c.15-.3.27-.5.38-.6.2-.2.43-.28.7-.28.42 0 .86.24 1.3.73L21 18.59c.15.22.3.33.46.33h4.4c.53 0 .8-.13.8-.38a.47.47 0 0 0-.09-.25l-3.86-4.55c-.3-.35-.45-.73-.45-1.13 0-.4.14-.8.42-1.16.23-.34.68-.9 1.35-1.67.66-.78 1.25-1.51 1.74-2.19.5-.68.83-1.3.99-1.85l.08-.33a.37.37 0 0 1-.03-.16c0-.07 0-.14-.02-.19H22.6c-.26.1-.48.25-.64.45l-.16.48c-.44 1.16-1.6 2.94-3.49 5.36-.37.33-.8.5-1.3.5Z" fill="currentColor"/></svg>
