<svg viewBox="0 0 25 19"><path d="m15.86 8.8-5.24-3.5a.65.65 0 0 0-1.02.55v6.98a.65.65 0 0 0 1.02.54l5.24-3.49a.65.65 0 0 0 0-1.09Zm-4.95 2.8V7.08l3.4 2.27-3.4 2.27ZM23.4 3.05a2.4 2.4 0 0 0-1.45-1.63C18.22-.02 12.26 0 12 0c-.25 0-6.21-.02-9.93 1.4A2.4 2.4 0 0 0 .62 3.05 25.32 25.32 0 0 0 0 9.34c0 3.26.33 5.22.62 6.3a2.4 2.4 0 0 0 1.45 1.63c3.72 1.43 9.68 1.4 9.93 1.4h.08c.75 0 6.32-.04 9.86-1.4a2.4 2.4 0 0 0 1.45-1.64c.29-1.07.61-3.03.61-6.3 0-3.25-.32-5.22-.6-6.29Zm-1.26 12.27a1.1 1.1 0 0 1-.66.74c-3.49 1.34-9.4 1.32-9.47 1.32-.06 0-5.97.02-9.46-1.32a1.09 1.09 0 0 1-.66-.74c-.26-1-.57-2.85-.57-5.97 0-3.12.3-4.97.57-5.97a1.1 1.1 0 0 1 .66-.74C6.03 1.29 11.94 1.3 12 1.3c.07 0 5.98-.02 9.47 1.32a1.1 1.1 0 0 1 .66.74c.26 1 .57 2.85.57 5.97 0 3.12-.31 4.96-.57 5.97Z" fill="currentColor"/></svg>
